<?xml version="1.0" standalone="no"?>
<!DOCTYPE svg PUBLIC "-//W3C//DTD SVG 20010904//EN"
 "http://www.w3.org/TR/2001/REC-SVG-20010904/DTD/svg10.dtd">
<svg version="1.0" xmlns="http://www.w3.org/2000/svg"
 width="512.000000pt" height="512.000000pt" viewBox="0 0 512.000000 512.000000"
 preserveAspectRatio="xMidYMid meet">

<g transform="translate(0.000000,512.000000) scale(0.100000,-0.100000)"
fill="#000000" stroke="none">
<path d="M3180 4831 c-19 -10 -43 -31 -52 -47 -16 -27 -17 -182 -19 -2235 -1
-1668 1 -2210 10 -2227 13 -24 60 -52 87 -52 9 0 61 20 115 45 l98 45 99 -45
c55 -25 107 -45 116 -45 26 0 74 28 86 49 14 26 14 3695 0 3721 -16 29 -67 42
-100 25 -15 -8 -30 -22 -34 -30 -3 -9 -6 -817 -6 -1796 0 -978 -2 -1779 -4
-1779 -2 0 -34 13 -71 30 -37 16 -76 30 -86 30 -11 0 -49 -13 -86 -30 -36 -16
-67 -30 -69 -30 -2 0 -4 954 -4 2120 l0 2120 160 0 160 0 0 -205 0 -206 26
-26 c20 -20 31 -24 57 -19 65 12 67 22 67 278 0 259 -3 274 -72 309 -33 17
-60 19 -240 19 -179 0 -207 -2 -238 -19z"/>
<path d="M510 4771 c-78 -25 -110 -77 -110 -180 l0 -70 -171 -3 -171 -3 -29
-33 -29 -32 0 -1905 c0 -1455 3 -1910 12 -1930 26 -58 -56 -55 1478 -55 902 0
1418 4 1430 10 29 16 42 67 25 100 -8 15 -22 30 -30 34 -9 3 -635 6 -1391 6
l-1374 0 0 1830 0 1830 125 0 125 0 0 -1663 c0 -1589 1 -1664 18 -1697 12 -22
35 -44 63 -58 l44 -23 905 3 c897 3 906 3 961 25 48 18 107 51 153 86 7 6 32
-5 63 -26 69 -46 143 -73 225 -82 66 -7 68 -7 99 24 25 26 30 37 24 59 -10 44
-35 59 -112 70 -80 11 -149 41 -188 82 l-25 26 2 1658 3 1658 25 20 c52 42
111 69 181 84 42 8 82 23 93 34 24 24 25 74 1 100 -43 48 -231 3 -347 -83
l-28 -21 -28 21 c-43 32 -122 69 -187 90 -55 17 -106 18 -663 18 l-604 0 -24
-28 c-29 -34 -30 -56 -4 -90 l21 -26 602 -3 c668 -4 654 -3 754 -72 l48 -33 3
-1663 2 -1664 -22 -24 c-13 -13 -43 -36 -68 -50 l-45 -27 -898 -3 -897 -2 2
1767 3 1768 138 5 c122 4 140 7 153 24 20 28 17 69 -5 97 -18 23 -25 24 -163
26 -78 1 -154 -2 -168 -6z"/>
<path d="M3934 4770 c-26 -10 -54 -48 -54 -71 0 -9 9 -28 21 -43 l20 -26 325
0 324 0 -2 -1772 -3 -1773 -322 -3 -322 -2 -20 -26 c-28 -36 -26 -60 8 -95
l29 -29 329 0 c321 0 330 1 373 23 27 13 50 35 62 57 17 33 18 108 18 1697 l0
1663 125 0 125 0 0 -1410 0 -1411 26 -26 c20 -20 31 -24 57 -19 18 3 40 16 50
27 16 20 17 105 17 1470 l0 1449 -29 32 -29 33 -171 3 -171 3 0 70 c0 84 -22
135 -72 164 -31 19 -53 20 -363 22 -181 1 -340 -2 -351 -7z"/>
<path d="M791 4004 c-28 -35 -26 -69 4 -99 l24 -25 706 0 706 0 24 25 c32 31
33 74 2 103 l-23 22 -711 0 -712 0 -20 -26z"/>
<path d="M3932 4007 c-29 -31 -28 -72 3 -102 24 -25 27 -25 200 -25 173 0 176
0 200 25 30 30 32 64 4 99 l-20 26 -183 0 c-178 0 -183 -1 -204 -23z"/>
<path d="M791 3554 c-28 -35 -26 -69 4 -99 23 -24 30 -25 148 -25 111 0 127 2
151 21 33 26 36 79 6 109 -18 18 -33 20 -154 20 -133 0 -135 0 -155 -26z"/>
<path d="M1322 3557 c-29 -31 -28 -72 3 -102 l24 -25 441 0 441 0 24 25 c32
31 33 74 2 103 -23 22 -25 22 -468 22 l-446 0 -21 -23z"/>
<path d="M3932 3557 c-31 -33 -29 -80 4 -106 25 -19 40 -21 201 -21 171 0 174
0 198 25 14 13 25 36 25 50 0 14 -11 37 -25 50 -24 25 -26 25 -203 25 -174 0
-179 -1 -200 -23z"/>
<path d="M795 3105 c-14 -13 -25 -36 -25 -50 0 -14 11 -37 25 -50 l24 -25 706
0 706 0 24 25 c32 31 33 74 2 103 l-23 22 -708 0 -707 0 -24 -25z"/>
<path d="M3932 3107 c-31 -33 -29 -80 4 -106 25 -19 40 -21 201 -21 171 0 174
0 198 25 14 13 25 36 25 50 0 14 -11 37 -25 50 -24 25 -26 25 -203 25 -174 0
-179 -1 -200 -23z"/>
<path d="M795 2655 c-14 -13 -25 -36 -25 -50 0 -14 11 -37 25 -50 l24 -25 704
0 c697 0 705 0 731 21 34 27 36 77 3 107 l-23 22 -708 0 -707 0 -24 -25z"/>
<path d="M3932 2657 c-31 -33 -29 -80 4 -106 25 -19 40 -21 201 -21 171 0 174
0 198 25 32 31 32 69 0 100 -24 25 -26 25 -203 25 -174 0 -179 -1 -200 -23z"/>
<path d="M795 2205 c-14 -13 -25 -36 -25 -50 0 -14 11 -37 25 -50 l24 -25 476
0 476 0 24 25 c32 31 32 69 0 100 l-24 25 -476 0 -476 0 -24 -25z"/>
<path d="M2007 2218 c-24 -19 -36 -59 -25 -87 16 -43 36 -50 144 -51 88 0 105
3 128 21 19 15 26 30 26 54 0 24 -7 39 -26 54 -23 18 -41 21 -128 21 -66 0
-108 -4 -119 -12z"/>
<path d="M3936 2209 c-36 -28 -36 -80 0 -108 25 -19 40 -21 201 -21 171 0 174
0 198 25 14 13 25 36 25 50 0 14 -11 37 -25 50 -24 25 -27 25 -198 25 -161 0
-176 -2 -201 -21z"/>
<path d="M795 1755 c-14 -13 -25 -36 -25 -50 0 -14 11 -37 25 -50 l24 -25 704
0 c697 0 705 0 731 21 36 28 36 80 0 108 -26 21 -34 21 -731 21 l-704 0 -24
-25z"/>
<path d="M3936 1759 c-36 -28 -36 -80 0 -108 25 -19 40 -21 201 -21 171 0 174
0 198 25 14 13 25 36 25 50 0 14 -11 37 -25 50 -24 25 -27 25 -198 25 -161 0
-176 -2 -201 -21z"/>
<path d="M4992 1307 c-22 -23 -22 -29 -22 -310 l0 -287 -519 0 c-492 0 -520
-1 -542 -19 -17 -13 -23 -29 -23 -56 0 -27 6 -43 23 -56 22 -18 51 -19 577
-19 407 0 560 3 579 12 53 24 55 40 55 386 0 308 -1 320 -21 346 -27 34 -77
36 -107 3z"/>
</g>
</svg>
